<svg width="50" height="50" viewBox="0 0 50 50" fill="none" xmlns="http://www.w3.org/2000/svg">
<path d="M46.875 3.125H3.125V46.875H46.875V3.125Z" fill="#FFCA28"/>
<path d="M29.6875 39.5124L32.9086 37.3808C33.1611 38.174 34.7597 40.0576 36.7789 40.0576C38.7981 40.0576 39.7356 38.9547 39.7356 38.2235C39.7356 36.231 37.6737 35.5285 36.6834 35.1911C36.5219 35.1361 36.3891 35.0908 36.2981 35.0513C36.2514 35.031 36.1809 35.004 36.0905 34.9694C34.9891 34.5486 30.9255 32.9961 30.9255 28.4958C30.9255 23.5391 35.7091 22.9691 36.7909 22.9691C37.4986 22.9691 40.9014 23.0558 42.5961 26.2405L39.4711 28.4216C38.7861 27.0336 37.6478 26.5752 36.9472 26.5752C35.2164 26.5752 34.8558 27.844 34.8558 28.4216C34.8558 30.0422 36.7362 30.7686 38.3239 31.3819C38.7394 31.5424 39.1347 31.6951 39.4711 31.8541C41.2019 32.6719 43.75 34.0104 43.75 38.2235C43.75 40.3338 41.98 43.7504 37.5241 43.7504C31.5384 43.7504 29.9519 40.1568 29.6875 39.5124Z" fill="#3E3E3E"/>
<path d="M14.0625 39.9355L17.4198 37.8052C17.6828 38.5979 18.7052 40.0594 20.1883 40.0594C21.6716 40.0594 22.4308 38.536 22.4308 37.8052V23.4379H26.5597V37.8052C26.6266 39.7869 25.5275 43.7504 20.6769 43.7504C16.2172 43.7504 14.3632 41.0999 14.0625 39.9355Z" fill="#3E3E3E"/>
</svg>
