<svg width="50" height="50" viewBox="0 0 50 50" fill="none" xmlns="http://www.w3.org/2000/svg">
<path d="M25 46.875C37.0812 46.875 46.875 37.0812 46.875 25C46.875 12.9188 37.0812 3.125 25 3.125C12.9188 3.125 3.125 12.9188 3.125 25C3.125 37.0812 12.9188 46.875 25 46.875Z" fill="#8892BF"/>
<path d="M22.5612 15.625H25.1862L24.4444 19.5691H26.8031C28.0967 19.5967 29.0603 19.8858 29.6945 20.4364C30.3412 20.9869 30.5316 22.0334 30.2653 23.5752L28.9908 30.4514H26.3277L27.545 23.8848C27.6717 23.1964 27.6337 22.7078 27.4309 22.4187C27.2281 22.1297 26.7906 21.9852 26.1184 21.9852L24.0069 21.9645L22.447 30.4514H19.822L22.5612 15.625Z" fill="white"/>
<path fill-rule="evenodd" clip-rule="evenodd" d="M10.5327 19.5692H15.6306C17.1269 19.5828 18.2112 20.0511 18.8834 20.9733C19.5556 21.8956 19.7775 23.1552 19.5492 24.7522C19.4606 25.482 19.2639 26.1977 18.9595 26.8998C18.6678 27.6019 18.2622 28.235 17.7422 28.7995C17.108 29.5153 16.4295 29.9695 15.7067 30.1625C14.9839 30.3553 14.2356 30.4516 13.4621 30.4516H11.1794L10.4566 34.375H7.8125L10.5327 19.5692ZM11.617 28.1181L12.7545 21.9439H13.1387C13.2784 21.9439 13.4241 21.9369 13.5762 21.9233C14.5909 21.9095 15.434 22.0128 16.1062 22.233C16.7909 22.4531 17.0192 23.2861 16.7909 24.7316C16.5122 26.4525 15.9666 27.4573 15.1551 27.7464C14.3436 28.0219 13.329 28.1525 12.1115 28.1387H11.8452C11.7691 28.1387 11.693 28.1317 11.617 28.1181Z" fill="white"/>
<path fill-rule="evenodd" clip-rule="evenodd" d="M38.182 19.5692H33.0841L30.3639 34.375H33.008L33.7309 30.4516H36.0136C36.787 30.4516 37.5353 30.3553 38.2581 30.1625C38.9811 29.9695 39.6594 29.5153 40.2936 28.7995C40.8136 28.235 41.2192 27.6019 41.5109 26.8998C41.8153 26.1977 42.012 25.482 42.1006 24.7522C42.3289 23.1552 42.1072 21.8956 41.4348 20.9733C40.7627 20.0511 39.6784 19.5828 38.182 19.5692ZM35.3059 21.9439L34.1684 28.1181C34.2445 28.1317 34.3206 28.1387 34.3967 28.1387H34.663C35.8805 28.1525 36.895 28.0219 37.7066 27.7464C38.518 27.4573 39.0636 26.4525 39.3425 24.7316C39.5708 23.2861 39.3425 22.4531 38.6577 22.233C37.9855 22.0128 37.1423 21.9095 36.1277 21.9233C35.9755 21.9369 35.8298 21.9439 35.6902 21.9439H35.3059Z" fill="white"/>
</svg>
