<svg width="45" height="45" viewBox="0 0 45 45" fill="none" xmlns="http://www.w3.org/2000/svg">
<g clip-path="url(#clip0_15_106)">
<path d="M19.8288 44.9713C15.6165 44.6676 11.4533 43.6074 8.9 42.1879C7.44565 41.3795 6.33764 40.3859 5.90285 39.5004L5.64417 38.9735V22.4468V5.92023L5.84886 5.5046C6.76363 3.64738 9.68306 1.97309 13.7584 0.9685C15.1418 0.627465 17.139 0.287846 18.7682 0.116589C20.4319 -0.0583325 24.8417 -0.0317195 26.5013 0.163516C30.9121 0.681723 34.6654 1.84186 36.9784 3.40201C37.8704 4.00366 38.7857 4.96636 39.0958 5.62902L39.3616 6.19717L39.3389 22.6738L39.3161 39.1505L39.1027 39.5841C38.9854 39.8225 38.6308 40.2916 38.3149 40.6265C36.3916 42.6653 32.2661 44.1735 26.8548 44.8162C25.7519 44.9472 20.9603 45.0528 19.8288 44.9713ZM27.5913 30.8102C27.5751 30.7679 26.9454 30.207 26.192 29.5635C25.4386 28.9201 24.7896 28.3634 24.75 28.3264C24.7103 28.2895 24.8495 28.1586 25.0593 28.0356C25.2691 27.9126 25.6711 27.5705 25.9526 27.2753C26.7757 26.4122 27.1641 25.3459 27.1641 23.9493C27.1641 22.5743 26.7452 21.465 25.9063 20.6181C25.0607 19.7645 24.0898 19.3978 22.676 19.3978C20.4966 19.3978 18.8229 20.6694 18.2887 22.7311C18.1049 23.4402 18.1059 24.8731 18.2906 25.5019C18.7724 27.1421 20.0845 28.3333 21.7174 28.613C22.27 28.7077 22.3449 28.7485 22.7216 29.1604C22.9455 29.4051 23.405 29.8938 23.7427 30.2462L24.3566 30.8869H25.9887C26.8863 30.8869 27.6075 30.8524 27.5913 30.8102ZM21.9942 26.2404C21.6013 26.0356 21.4528 25.8766 21.2287 25.4211C21.0557 25.0693 21.0261 24.8692 21.0241 24.0377C21.0222 23.1928 21.0491 23.0102 21.2298 22.6433C21.5254 22.0429 21.9328 21.7587 22.563 21.7132C23.4402 21.6495 23.9465 22.08 24.2119 23.1147C24.5372 24.3832 24.1794 25.7318 23.3988 26.1793C22.9893 26.4142 22.3784 26.4407 21.9942 26.2404ZM14.7601 28.595C16.4712 28.2705 17.4426 27.2754 17.4426 25.8468C17.4426 24.5795 16.8155 23.8411 15.0822 23.0673C14.0901 22.6244 13.7307 22.3464 13.7307 22.0216C13.7307 21.7523 14.0717 21.4573 14.4688 21.3832C14.8564 21.3108 15.8846 21.4894 16.4918 21.7346L17.0007 21.9402V20.8137V19.6871L16.4483 19.5645C16.1069 19.4888 15.3896 19.4434 14.5703 19.4457C13.4097 19.4457 13.1825 19.474 12.7458 19.6474C11.47 20.1539 10.8647 21.0166 10.8744 22.3143C10.8834 23.5292 11.5243 24.287 13.1194 24.9687C14.0605 25.371 14.4377 25.6773 14.4377 26.0392C14.4377 26.8084 13.1561 26.9031 11.7992 26.2341C11.4276 26.0509 11.0937 25.8861 11.0573 25.8678C11.0208 25.8496 10.991 26.3758 10.991 27.0373C10.991 28.2345 10.9923 28.2403 11.2091 28.3228C12.0253 28.6332 13.8295 28.7715 14.7601 28.595ZM34.3227 27.4844V26.468H32.7761H31.2295V22.9771V19.4862H29.8596H28.4898V23.9935V28.5007H31.4062H34.3227V27.4844ZM24.7779 9.67399C27.5001 9.48518 29.5406 9.12871 31.3362 8.52835C33.125 7.93023 34.1818 7.20652 34.4181 6.4176C34.5092 6.11359 34.5027 5.99828 34.3754 5.66496C33.8047 4.17064 30.6167 3.02254 25.7451 2.55704C23.6613 2.35789 19.8715 2.42245 17.8846 2.69084C14.8528 3.10047 12.3924 3.86134 11.2984 4.72759C9.08539 6.48002 11.4257 8.40746 16.8682 9.31466C19.228 9.70802 22.2853 9.84692 24.7779 9.67399Z" fill="#00BCF2"/>
</g>
<defs>
<clipPath id="clip0_15_106">
<rect width="45" height="45" fill="white"/>
</clipPath>
</defs>
</svg>
